<?xml version="1.0" standalone="no"?>
<!DOCTYPE svg PUBLIC "-//W3C//DTD SVG 20010904//EN"
 "http://www.w3.org/TR/2001/REC-SVG-20010904/DTD/svg10.dtd">
<svg version="1.0" xmlns="http://www.w3.org/2000/svg"
 width="225.000000pt" height="225.000000pt" viewBox="0 0 225.000000 225.000000"
 preserveAspectRatio="xMidYMid meet">

<g transform="translate(0.000000,225.000000) scale(0.100000,-0.100000)"
fill="#000000" stroke="none">
<path d="M985 2106 c-552 -92 -929 -614 -840 -1161 84 -515 528 -876 1050
-852 487 22 881 381 956 870 15 101 6 277 -21 387 -68 278 -269 529 -530 660
-182 92 -419 129 -615 96z m-114 -505 c58 -59 33 -148 -48 -170 -42 -12 -71
-4 -105 27 -40 37 -40 102 1 143 24 24 38 29 76 29 38 0 52 -5 76 -29z m665
-277 c37 -23 56 -44 79 -89 l30 -59 3 -248 4 -248 -106 0 -106 0 0 210 c0 269
-11 300 -105 300 -29 0 -45 -8 -71 -34 l-34 -34 0 -221 0 -221 -105 0 -105 0
-1 320 c-1 176 -2 326 -3 333 -1 9 23 12 89 12 l90 0 3 -42 c2 -24 7 -43 13
-43 5 0 9 4 9 9 0 15 65 62 107 77 62 23 152 14 209 -22z m-638 -311 l2 -333
-105 0 -105 0 0 335 0 336 103 -3 102 -3 3 -332z"/>
</g>
</svg>
